<?xml version="1.0" standalone="no"?>
<!DOCTYPE svg PUBLIC "-//W3C//DTD SVG 20010904//EN"
 "http://www.w3.org/TR/2001/REC-SVG-20010904/DTD/svg10.dtd">
<svg version="1.0" xmlns="http://www.w3.org/2000/svg"
 width="500.000000pt" height="500.000000pt" viewBox="0 0 500.000000 500.000000"
 preserveAspectRatio="xMidYMid meet">
<metadata>
Created by potrace 1.11, written by Peter Selinger 2001-2013
</metadata>
<g transform="translate(0.000000,500.000000) scale(0.100000,-0.100000)"
fill="#000000" stroke="none">
<path d="M3785 3644 c-91 -29 -253 -226 -319 -387 -33 -82 -49 -100 -117 -137
-171 -90 -506 -356 -685 -543 -60 -62 -147 -146 -194 -185 -47 -38 -109 -103
-139 -142 -31 -41 -81 -91 -116 -115 -69 -49 -370 -182 -565 -250 -165 -57
-262 -94 -393 -149 -59 -25 -214 -80 -345 -122 -322 -104 -394 -138 -378 -179
11 -30 56 -37 154 -26 51 6 111 18 135 27 23 9 71 19 107 23 36 4 80 15 98 24
25 14 45 16 95 11 59 -6 67 -4 107 22 32 21 60 30 114 35 62 6 92 17 206 74
135 68 506 227 635 272 38 14 144 40 235 59 91 19 184 39 207 46 36 10 45 10
60 -4 14 -13 47 -17 150 -20 72 -1 134 -6 137 -9 4 -3 0 -24 -8 -45 -12 -35
-12 -44 1 -68 15 -29 83 -314 83 -347 0 -27 -30 -38 -96 -36 -95 2 -157 -37
-138 -88 9 -22 18 -19 37 15 20 34 32 37 54 14 10 -10 24 -13 37 -9 12 4 34 9
51 12 16 3 42 15 56 25 19 15 54 22 133 29 112 10 146 20 146 44 0 18 31 20
47 4 6 -6 16 -8 21 -5 11 7 4 46 -8 46 -4 0 -12 11 -18 24 -16 35 -58 40 -112
12 -38 -19 -48 -21 -58 -9 -15 15 -58 17 -67 3 -13 -21 -23 -8 -38 53 -26 97
-39 230 -27 263 16 40 25 44 118 44 63 0 82 -3 78 -12 -2 -7 -10 -30 -17 -52
-13 -37 -12 -39 18 -65 35 -29 166 -278 177 -334 10 -53 -7 -61 -115 -53 l-90
7 -35 -35 c-19 -19 -34 -41 -34 -50 0 -20 14 -21 31 0 7 8 25 22 40 29 26 14
27 13 33 -10 7 -28 25 -31 65 -11 15 8 37 12 49 9 12 -3 41 6 72 23 l51 28 52
-17 c29 -10 84 -18 122 -20 60 -2 70 0 70 15 0 29 14 32 45 10 37 -28 40 -27
40 2 0 17 -9 28 -30 38 -16 7 -30 16 -30 20 0 12 14 9 36 -7 24 -18 34 -19 34
-1 0 8 -12 24 -27 35 -30 25 -78 21 -129 -10 -38 -23 -44 -23 -44 -4 0 8 7 15
15 15 18 0 20 21 3 38 -21 21 -57 13 -96 -22 l-38 -35 -82 162 c-71 139 -82
169 -82 212 0 57 27 110 62 124 13 5 61 21 108 35 185 55 334 195 447 419 71
142 96 252 96 427 1 112 -3 155 -16 190 -23 62 -21 87 12 170 52 128 81 146
244 152 93 3 121 8 134 21 11 11 14 20 8 26 -28 27 -138 84 -197 102 -55 16
-72 27 -99 61 -18 22 -49 47 -68 56 -54 22 -252 26 -316 6z m259 -110 c9 -8
16 -22 16 -29 0 -17 -27 -45 -44 -45 -35 0 -49 61 -18 79 23 14 28 14 46 -5z
m-699 -1964 c3 -5 -3 -10 -14 -10 -12 0 -21 5 -21 10 0 6 6 10 14 10 8 0 18
-4 21 -10z"/>
</g>
</svg>
